<?xml version="1.0" encoding="utf-8"?>
<!-- Generator: Adobe Illustrator 24.2.1, SVG Export Plug-In . SVG Version: 6.00 Build 0)  -->
<svg version="1.1" id="Layer_1" xmlns="http://www.w3.org/2000/svg" xmlns:xlink="http://www.w3.org/1999/xlink" x="0px" y="0px"
	 viewBox="0 0 500 500" style="enable-background:new 0 0 500 500;" xml:space="preserve">
<style type="text/css">
	.st0{fill:#151515;}
</style>
<path class="st0" d="M428.2,330.4l-3.2-1.5l1-8.3c0.2-2-0.8-4-2.7-4.8c-1.8-0.9-4-0.5-5.4,1l-6,6.2l-4.9-2.2l-14.1-6.4l1-8.7
	c0.2-2-0.8-4-2.7-4.8c-1.8-0.9-4-0.5-5.4,1l-6.3,6.5l-20-9.1l1.1-8.9c0.2-2-0.8-4-2.7-4.8c-1.8-0.9-4-0.5-5.4,1l-6.5,6.7l-2.3-1
	c-6.4-2.9-8.1-11.1-3.5-16.4l7.8-8.8l6.7-6.7l7.4,3.7c0.7,0.3,1.4,0.5,2.1,0.5c1.2,0,2.4-0.5,3.3-1.4c1.4-1.4,1.8-3.6,0.9-5.5
	l-3.7-7.5l14.9-14.9l7.4,3.7c0.7,0.3,1.4,0.5,2.1,0.5c1.2,0,2.4-0.5,3.3-1.4c1.4-1.4,1.8-3.6,0.9-5.5l-3.7-7.4l15.9-16l7.1,3.5
	c0.7,0.3,1.4,0.5,2.1,0.5c1.2,0,2.4-0.5,3.3-1.4c1.4-1.4,1.8-3.6,0.9-5.5l-3.5-7.2l0.4-0.4c8.8-8.8,8.8-23.1,0-31.9l-10.3-10.3
	c-6.1-6.1-15.5-4.7-21.7,1.9c-5.3,5.6-5.7,14.4-0.2,21.2l3,3l-42.7,42.8c0,0-15.8-11.4-29,1.9c0,0-11.6,12,0.5,28.7
	c0,0,0.3,5.4-5.8,5.8h-18.3v-4.7c0-7.3-5.9-13.2-13.2-13.2c-7.3,0-13.2,5.9-13.2,13.2v4.7h-28v-4.7c0-7.3-5.9-13.2-13.2-13.2
	c-7.3,0-13.2,5.9-13.2,13.2v4.7H183l0.6-3c1.4-7.1-3.2-14.1-10.3-15.6c-7.1-1.4-14.1,3.2-15.5,10.3l-0.4,2
	c-8.7-5.4-15.2-13.9-18.1-24h3c7.3,0,13.2-5.9,13.2-13.2c0-7.3-5.9-13.2-13.2-13.2h-1.8c4.9-12.4,15.8-21.7,28.8-25.2v3.5
	c0,7.3,5.9,13.2,13.2,13.2c7.3,0,13.2-5.9,13.2-13.2v-5h33.7c15.3,0,27.7-12.4,27.7-27.6c0-3.5-2.8-6.3-6.2-6.3h-75
	c-53.2,0-101,43.4-103.2,96.5c-1.6,38,17.8,71.4,47.6,90c-10,11.3-13.4,24.9-14.6,33c-0.5,3.7,2.4,7.1,6.1,7.1l23.6,0
	c3.2,0,5.8-2.6,6.1-5.8c0.8-9.3,4.7-16.7,8.6-21.9c7.5,1.8,15.4,2.9,23.4,2.9h101.4c3.4,5.4,6.5,12.6,6.7,21.3
	c0.1,2,1.7,3.6,3.7,3.6l28.5,0c2.3,0,4.1-1.9,3.8-4.2c-0.5-5.7-2.3-16.2-8.3-26.7c6.1-2.9,11.7-6.6,16.6-11.4h0
	c7.8-7.4,19.3-9.4,29.1-5l45.2,20.5c11.1,5.1,24.3,0.1,29.3-11C430,332.4,429.4,330.9,428.2,330.4z M325.3,244.5
	c-3.1-3.1-3.1-8,0-11.1c3.1-3.1,8-3.1,11.1,0c3.1,3.1,3.1,8,0,11.1C333.4,247.6,328.4,247.6,325.3,244.5z"/>
</svg>
