<?xml version="1.0" encoding="utf-8"?>
<!-- Generator: Adobe Illustrator 24.2.1, SVG Export Plug-In . SVG Version: 6.00 Build 0)  -->
<svg version="1.1" id="Layer_1" xmlns="http://www.w3.org/2000/svg" xmlns:xlink="http://www.w3.org/1999/xlink" x="0px" y="0px"
	 viewBox="0 0 1024 195" style="enable-background:new 0 0 1024 195;" xml:space="preserve">
<style type="text/css">
	.st0{fill:#04128c;stroke:#04128c;stroke-width:2.8256;stroke-miterlimit:10;}
	.st1{fill:#04128c;}
</style>
<g>
	<path class="st0" d="M277.3,175.1l10-116.6h25.2l1.4,14.7c3.3-5.1,7-9.2,11.3-12.2c4.3-3,9.1-4.5,14.6-4.5c2.5,0,4.5,0.1,6.1,0.2
		c1.6,0.2,3,0.4,4.2,0.7l-2.8,32.2c-3.4-0.9-6.8-1.4-10-1.4c-6.7,0-12.2,3-16.6,8.9c-4.4,5.9-6.9,13.6-7.7,23.1l-4.7,55H277.3z"/>
	<path class="st0" d="M450.2,90.2c0,6.4-0.8,12-2.4,17c-1.6,5-4.2,9.2-7.8,12.6c-3.6,3.4-8.3,6-14.2,7.8c-5.9,1.8-13.1,2.7-21.4,2.7
		c-2.5,0-5.1,0-7.8-0.1c-2.7-0.1-5.6-0.3-8.5-0.6v1.9c0,7.3,1.3,12.3,3.8,15c2.6,2.7,7.2,4.1,13.9,4.1c5.3,0,10.7-0.4,16.3-1.2
		c5.6-0.8,10.2-1.6,13.8-2.3l-2.3,26.1c-1.9,0.5-4.1,1-6.8,1.5c-2.6,0.5-5.3,1-8,1.3c-2.7,0.3-5.4,0.6-8,0.8
		c-2.6,0.2-5.1,0.3-7.2,0.3c-7,0-13.3-0.6-19-1.7c-5.7-1.2-10.5-3.4-14.6-6.8c-4-3.3-7.2-8.1-9.4-14.2c-2.3-6.1-3.4-14.2-3.4-24.1
		c0-4.2,0.2-8.7,0.7-13.5c0.9-10.7,2.7-19.9,5.4-27.6c2.6-7.7,6.1-13.9,10.5-18.8c4.4-4.8,9.6-8.4,15.9-10.6
		c6.2-2.2,13.4-3.4,21.4-3.4c8.2,0,14.9,1.2,20,3.5c5.1,2.3,9.1,5.2,12,8.6c2.9,3.4,4.8,7.1,5.8,11.1
		C449.7,83.6,450.2,87.1,450.2,90.2z M408,82.1c-4.5,0-8.2,1.7-11,5.1c-2.8,3.4-5.1,9.5-6.8,18.2c4,0.5,7.7,0.7,11,0.7
		c5.6,0,10.1-0.9,13.4-2.7c3.3-1.8,5-4.9,5-9.4c0-3.3-0.7-6.1-2-8.4C416.4,83.3,413.2,82.1,408,82.1z"/>
	<path class="st0" d="M552.6,116.4c0,1.2,0,2.6-0.1,4c-0.1,1.4-0.2,2.8-0.3,4.2c-1.1,11.2-3.1,20.2-6.2,27c-3,6.8-7,12.1-12,15.9
		c-5,3.7-10.8,6.2-17.5,7.5c-6.7,1.2-14.2,1.9-22.6,1.9c-2.5,0-5.2-0.1-8.3-0.2c-3-0.2-6.1-0.4-9.1-0.7c-3-0.3-5.9-0.7-8.6-1.2
		c-2.7-0.5-5-0.9-6.9-1.4l2.6-27.7c1.7,0.5,3.8,0.9,6.4,1.4c2.6,0.5,5.2,0.9,8,1.2c2.8,0.3,5.6,0.6,8.4,0.8c2.8,0.2,5.3,0.3,7.5,0.3
		c7.8,0,14-2,18.8-5.9c4.7-4,7.1-10.8,7.1-20.6c0-6.4-1.6-10.8-4.7-13.3c-3.1-2.5-7.5-4.4-13.3-5.8c-11.7-2.8-19.9-7.5-24.8-14
		c-4.9-6.5-7.3-14.7-7.3-24.5c0-19,4.7-32.8,14.1-41.6c9.4-8.8,24.4-13.2,45.1-13.2c2.2,0,4.6,0.1,7.3,0.2c2.7,0.2,5.4,0.4,8,0.7
		c2.6,0.3,5.2,0.7,7.7,1c2.5,0.4,4.5,0.8,6.1,1.3l-2.3,27.7c-4-1.2-8.7-2.1-14.1-2.7c-5.4-0.5-11-0.8-16.9-0.8
		c-7.5,0-13.1,1.9-16.8,5.6s-5.6,9.8-5.6,18.2c0,4.5,1.2,7.7,3.6,9.7c2.4,1.9,6.8,3.6,13.2,5c5,1.1,9.5,2.6,13.6,4.7
		c4.1,2,7.7,4.6,10.6,7.8c3,3.2,5.2,7,6.9,11.5C551.8,104.8,552.6,110.1,552.6,116.4z"/>
	<path class="st0" d="M638.4,173.7c-3.9,1.1-8.3,1.9-13.3,2.6c-5,0.6-9.6,0.9-13.8,0.9c-6.4,0-12.2-0.6-17.4-1.7
		c-5.2-1.2-9.7-3.5-13.4-6.9c-3.7-3.4-6.6-8.2-8.6-14.3c-2-6.1-3-14.2-3-24.1c0-13.4,1.1-24.7,3.3-34c2.2-9.3,5.4-16.9,9.8-22.8
		c4.4-5.9,9.9-10.2,16.6-12.8c6.7-2.6,14.5-4,23.5-4c3.9,0,8.4,0.3,13.5,1c5.1,0.7,9.4,1.4,12.8,2.2L646.1,87
		c-2.2-0.5-4.1-0.9-5.8-1.3c-1.7-0.4-3.5-0.7-5.4-1c-1.9-0.3-3.9-0.5-6.1-0.7c-2.2-0.2-4.7-0.2-7.7-0.2c-2.6,0-5.1,0.5-7.2,1.4
		c-2.2,0.9-4.1,2.7-5.7,5.2c-1.6,2.6-3,6.1-4.2,10.7c-1.2,4.6-2.1,10.6-2.9,18.1c-0.2,1.7-0.3,3.3-0.3,4.8c-0.1,1.5-0.1,2.9-0.1,4.3
		c0,8.2,1.2,13.9,3.6,17c2.4,3.1,5.9,4.7,10.6,4.7c5.9,0,10.8-0.4,14.8-1.2c4-0.8,7.7-1.5,11.1-2.1L638.4,173.7z"/>
	<path class="st0" d="M662.8,175.1l10-116.6H698l1.4,14.7c3.3-5.1,7-9.2,11.3-12.2c4.3-3,9.1-4.5,14.6-4.5c2.5,0,4.5,0.1,6.1,0.2
		c1.6,0.2,3,0.4,4.2,0.7l-2.8,32.2c-3.4-0.9-6.8-1.4-10-1.4c-6.7,0-12.2,3-16.6,8.9c-4.4,5.9-6.9,13.6-7.7,23.1l-4.7,55H662.8z"/>
	<path class="st0" d="M745.1,175.1l10-116.6h31l-10,116.6H745.1z M755.8,38.7l2.3-26.8h33.3l-2.3,26.8H755.8z"/>
	<path class="st0" d="M906,111.7c-1.1,13.1-3.1,23.8-6.2,32.3c-3,8.5-7,15.2-12,20c-5,4.9-10.9,8.3-17.8,10.3
		c-6.9,1.9-14.9,2.9-23.9,2.9c-7.2,0-13.7-0.3-19.6-0.9c-5.9-0.6-12.6-1.4-20-2.3l14.2-162h31l-4.9,55.5c3.6-3.4,7.6-6.1,12.1-8
		c4.5-1.9,9.7-2.9,15.6-2.9c11,0,19.2,3.5,24.4,10.4c5.2,6.9,7.8,17.2,7.8,30.9c0,1.7,0,4-0.1,6.8
		C906.5,107.3,906.3,109.7,906,111.7z M864,83c-3,0-5.7,0.8-8.2,2.3c-2.5,1.6-4.6,3.6-6.3,6.1c-1.7,2.5-3.1,5.2-4.2,8.3
		c-1.1,3-1.8,5.9-2.1,8.7l-3.7,41.7c1.9,0.2,3.7,0.3,5.6,0.3c1.9,0.1,3.7,0.1,5.4,0.1c2.8,0,5.4-0.4,7.9-1.3
		c2.5-0.9,4.8-2.6,6.9-5.1c2.1-2.6,4-6.3,5.6-11.2c1.6-4.9,2.9-11.3,3.8-19.2c0.5-4,0.7-8.2,0.7-12.4c0-7.3-1-12.2-2.9-14.7
		C870.6,84.3,867.7,83,864,83z"/>
	<path class="st0" d="M1018.8,90.2c0,6.4-0.8,12-2.4,17c-1.6,5-4.2,9.2-7.8,12.6c-3.6,3.4-8.3,6-14.2,7.8
		c-5.9,1.8-13.1,2.7-21.4,2.7c-2.5,0-5.1,0-7.8-0.1c-2.7-0.1-5.6-0.3-8.5-0.6v1.9c0,7.3,1.3,12.3,3.8,15c2.6,2.7,7.2,4.1,13.9,4.1
		c5.3,0,10.7-0.4,16.3-1.2c5.6-0.8,10.2-1.6,13.8-2.3l-2.3,26.1c-1.9,0.5-4.1,1-6.8,1.5c-2.6,0.5-5.3,1-8,1.3
		c-2.7,0.3-5.4,0.6-8,0.8c-2.6,0.2-5.1,0.3-7.2,0.3c-7,0-13.3-0.6-19-1.7c-5.7-1.2-10.5-3.4-14.6-6.8c-4-3.3-7.2-8.1-9.4-14.2
		c-2.3-6.1-3.4-14.2-3.4-24.1c0-4.2,0.2-8.7,0.7-13.5c0.9-10.7,2.7-19.9,5.4-27.6c2.6-7.7,6.1-13.9,10.5-18.8
		c4.4-4.8,9.6-8.4,15.9-10.6c6.2-2.2,13.4-3.4,21.4-3.4c8.2,0,14.9,1.2,20,3.5c5.1,2.3,9.1,5.2,12,8.6c2.9,3.4,4.8,7.1,5.8,11.1
		C1018.3,83.6,1018.8,87.1,1018.8,90.2z M976.6,82.1c-4.5,0-8.2,1.7-11,5.1c-2.8,3.4-5.1,9.5-6.8,18.2c4,0.5,7.7,0.7,11,0.7
		c5.6,0,10.1-0.9,13.4-2.7c3.3-1.8,5-4.9,5-9.4c0-3.3-0.7-6.1-2-8.4C985,83.3,981.7,82.1,976.6,82.1z"/>
</g>
<path class="st1" d="M238.4,163.8l-2.1-1l0.7-5.5c0.2-1.3-0.6-2.6-1.8-3.2c-1.2-0.6-2.7-0.3-3.6,0.7l-4,4.1l-3.2-1.5l-9.3-4.2
	l0.7-5.8c0.2-1.3-0.5-2.6-1.8-3.2c-1.2-0.6-2.7-0.3-3.6,0.7l-4.2,4.3l-13.2-6l0.7-5.9c0.2-1.3-0.5-2.6-1.8-3.2
	c-1.2-0.6-2.7-0.3-3.6,0.7l-4.3,4.4l-1.5-0.7c-4.2-1.9-5.4-7.4-2.3-10.8l5.2-5.9l4.4-4.4l4.9,2.4c0.4,0.2,0.9,0.3,1.4,0.3
	c0.8,0,1.6-0.3,2.2-0.9c1-1,1.2-2.4,0.6-3.6l-2.4-4.9l9.9-9.9l4.9,2.4c0.4,0.2,0.9,0.3,1.4,0.3c0.8,0,1.6-0.3,2.2-0.9
	c1-1,1.2-2.4,0.6-3.6l-2.4-4.9l10.5-10.6l4.7,2.3c0.4,0.2,0.9,0.3,1.4,0.3c0.8,0,1.6-0.3,2.2-0.9c1-1,1.2-2.4,0.6-3.6l-2.3-4.8
	l0.3-0.3c5.8-5.8,5.8-15.3,0-21.2l-6.8-6.8c-4.1-4-10.2-3.1-14.4,1.2c-3.5,3.7-3.8,9.5-0.1,14l2,2l-28.3,28.4c0,0-10.4-7.6-19.2,1.2
	c0,0-7.7,7.9,0.4,19c0,0,0.2,3.6-3.9,3.9h-12.1v-3.1c0-4.8-3.9-8.7-8.7-8.7c-4.8,0-8.7,3.9-8.7,8.7v3.1h-18.5v-3.1
	c0-4.8-3.9-8.7-8.7-8.7c-4.8,0-8.7,3.9-8.7,8.7v3.1H75.8l0.4-2c1-4.7-2.1-9.3-6.8-10.3c-4.7-1-9.3,2.1-10.3,6.8l-0.3,1.3
	c-5.8-3.6-10.1-9.2-12-15.9h2c4.8,0,8.7-3.9,8.7-8.7c0-4.8-3.9-8.7-8.7-8.7h-1.2c3.2-8.2,10.5-14.4,19.1-16.7v2.3
	c0,4.8,3.9,8.7,8.7,8.7s8.7-3.9,8.7-8.7v-3.3h22.3c10.1,0,18.3-8.2,18.4-18.3c0-2.3-1.8-4.2-4.1-4.2H71c-35.3,0-66.9,28.7-68.4,64
	c-1.1,25.2,11.8,47.4,31.5,59.6c-6.7,7.5-8.9,16.5-9.7,21.9c-0.4,2.5,1.6,4.7,4.1,4.7l15.6,0c2.1,0,3.8-1.7,4-3.8
	c0.5-6.1,3.1-11,5.7-14.5c5,1.2,10.2,1.9,15.5,1.9h67.2c2.3,3.6,4.3,8.3,4.4,14.1c0,1.3,1.1,2.4,2.5,2.4l18.9,0
	c1.5,0,2.7-1.3,2.5-2.8c-0.4-3.7-1.5-10.8-5.5-17.7c4-1.9,7.8-4.4,11-7.5h0c5.2-4.9,12.8-6.2,19.3-3.3l30,13.6
	c7.4,3.4,16.1,0.1,19.4-7.3C239.5,165.1,239.2,164.2,238.4,163.8z M170.2,106.9c-2-2-2-5.3,0-7.4c2-2,5.3-2,7.4,0c2,2,2,5.3,0,7.4
	C175.5,108.9,172.2,108.9,170.2,106.9z"/>
</svg>
